<svg xmlns="http://www.w3.org/2000/svg" viewBox="0 0 100 125" fill="none" x="0px" y="0px"><path fill-rule="evenodd" clip-rule="evenodd" d="M85.1478 2.88697C85.0256 2.60711 84.8537 2.31147 84.5849 2.1403C84.4344 2.04443 84.2508 1.98652 84.0488 2.0027C83.8535 2.01834 83.6936 2.09892 83.5742 2.18786C83.352 2.35343 83.1948 2.60393 83.0811 2.82844C82.9595 3.0683 82.8507 3.35403 82.7537 3.66014C82.4036 4.76425 82.142 6.34115 82.0455 7.62801L81.9257 7.67802L81.8795 7.69726C81.4162 7.88983 80.7592 8.16297 80.3087 8.60246C80.0607 8.84431 79.85 9.15833 79.7708 9.55859C79.6916 9.95871 79.7569 10.3795 79.9456 10.812C80.1879 11.3671 80.5909 11.7255 81.1125 11.8455C81.5936 11.9562 82.0854 11.8423 82.5023 11.6731C83.0772 11.4397 83.6474 11.044 84.1106 10.6553C83.9228 11.3805 83.7786 12.2471 83.8192 13.0263C83.8472 13.5624 83.966 14.1321 84.2902 14.5815C84.6396 15.066 85.1758 15.3387 85.8608 15.3387C86.3957 15.3387 86.8537 15.207 87.2179 14.9312C87.5798 14.6571 87.7907 14.2848 87.9134 13.9086C88.14 13.2133 88.1026 12.3664 88.0751 11.7438L88.0728 11.6908C88.069 11.6047 88.0654 11.5227 88.0624 11.4445C89.3628 10.704 90.899 9.62018 91.884 8.67532C92.1531 8.41713 92.3931 8.15797 92.5785 7.90906C92.7548 7.67241 92.923 7.39132 92.9796 7.09369C93.0096 6.93589 93.0126 6.74997 92.9464 6.56072C92.8779 6.36527 92.7511 6.21117 92.5948 6.10107C92.3107 5.90084 91.9394 5.85094 91.5873 5.85085C89.9056 5.85042 88.3624 6.48443 87.1326 7.26884C86.4083 7.73079 85.7769 8.2549 85.2731 8.75645C85.4392 8.22203 85.5784 7.60815 85.6566 6.95421C85.807 5.69517 85.7371 4.23645 85.1478 2.88697ZM83.2257 8.06697C83.2907 6.80011 83.5561 5.1207 83.9024 4.02853C83.968 3.82149 84.0337 3.64495 84.0973 3.50159C84.5257 4.56027 84.5881 5.73359 84.4595 6.80949C84.3319 7.87726 84.0217 8.80254 83.7472 9.35411C83.297 9.79468 82.6417 10.3089 82.051 10.5486C81.74 10.6749 81.5193 10.6952 81.3813 10.6634C81.2838 10.641 81.1612 10.5804 81.0496 10.3246C80.9356 10.0634 80.933 9.89764 80.9533 9.79526C80.9735 9.69301 81.0295 9.58857 81.1481 9.47289C81.4153 9.21215 81.861 9.01738 82.3869 8.79842L82.3944 8.79527C82.5562 8.72793 82.7264 8.65708 82.88 8.58451L83.2071 8.42998L83.2257 8.06697ZM85.0232 12.9628C84.9803 12.1409 85.2046 11.1161 85.4471 10.3825C85.8913 9.79044 86.7145 8.97136 87.7783 8.29289C88.8841 7.5876 90.2041 7.0631 91.587 7.06345C91.6272 7.06346 91.6629 7.06447 91.6945 7.06615C91.6724 7.10033 91.6457 7.13891 91.6136 7.18197C91.4822 7.35844 91.293 7.56646 91.0518 7.79786C90.0789 8.73117 88.4558 9.85945 87.1659 10.5574L86.8486 10.729V11.0913C86.8486 11.2961 86.8584 11.5193 86.8679 11.7362L86.8683 11.7443C86.8986 12.4366 86.9184 13.0684 86.7677 13.5308C86.6984 13.7434 86.605 13.8774 86.4927 13.9625C86.3827 14.0458 86.1969 14.1261 85.8608 14.1261C85.5278 14.1261 85.3693 14.0126 85.2661 13.8695C85.1376 13.6914 85.0456 13.3922 85.0232 12.9628Z" fill="black"/><path d="M81.4578 14.2284C81.6197 13.9145 82.004 13.7921 82.3161 13.955C82.6282 14.1179 82.7499 14.5044 82.588 14.8182C82.3709 15.239 82.1474 15.6402 81.9178 16.0225C81.736 16.3252 81.3446 16.4224 81.0437 16.2395C80.7427 16.0567 80.6461 15.6631 80.8279 15.3604C81.0428 15.0026 81.2529 14.6257 81.4578 14.2284Z" fill="black"/><path d="M80.2645 17.3481C79.9957 17.1201 79.5941 17.1545 79.3674 17.4248C78.7981 18.1039 78.2036 18.6837 77.5879 19.1784C77.3132 19.3992 77.2684 19.8021 77.4879 20.0784C77.7074 20.3546 78.108 20.3997 78.3827 20.1789C79.0657 19.6301 79.7197 18.9913 80.3408 18.2504C80.5675 17.98 80.5333 17.5761 80.2645 17.3481Z" fill="black"/><path d="M75.489 20.5196C75.8044 20.3634 76.1861 20.4939 76.3414 20.8112C76.4967 21.1285 76.3668 21.5123 76.0514 21.6685C75.2156 22.0824 74.3543 22.3959 73.4751 22.6304C73.1353 22.7211 72.7867 22.5175 72.6965 22.1757C72.6064 21.8339 72.8088 21.4833 73.1487 21.3926C73.9548 21.1775 74.7361 20.8924 75.489 20.5196Z" fill="black"/><path d="M71.3626 22.4127C71.3249 22.0611 71.011 21.8068 70.6614 21.8447C69.8264 21.9352 68.9724 21.9749 68.1028 21.9806C67.7512 21.9829 67.4681 22.2715 67.4704 22.6251C67.4727 22.9787 67.7596 23.2635 68.1112 23.2612C69.0131 23.2553 69.911 23.214 70.7978 23.1179C71.1474 23.0801 71.4002 22.7643 71.3626 22.4127Z" fill="black"/><path d="M65.5112 21.916C65.8624 21.9334 66.1331 22.2338 66.1158 22.587C66.0985 22.9402 65.7998 23.2124 65.4487 23.1951C64.6142 23.1538 63.7764 23.0982 62.9451 23.0431L62.8142 23.0344C62.4633 23.0112 62.1977 22.7063 62.2208 22.3534C62.2439 22.0005 62.547 21.7333 62.8979 21.7566L63.0262 21.7651C63.86 21.8204 64.6878 21.8753 65.5112 21.916Z" fill="black"/><path fill-rule="evenodd" clip-rule="evenodd" d="M65.41 34.1114L44.4221 38.4022C43.9254 38.5037 43.4259 38.5675 42.9274 38.5949C42.8833 38.5381 42.8289 38.4878 42.7649 38.4471C42.6119 38.35 42.4335 38.3265 42.2708 38.3674C42.3125 37.8714 42.3803 37.3592 42.4759 36.8307C42.5389 36.4828 42.3094 36.1494 41.9635 36.0861C41.6176 36.0228 41.2861 36.2536 41.2232 36.6015C41.1041 37.2598 41.0245 37.8987 40.9824 38.5182C38.5886 38.1969 36.3333 37.0461 34.6501 35.218C32.1926 32.549 28.5138 31.3221 24.9636 32.017L12.5523 34.4464C9.56876 35.0304 7.58575 37.8922 8.07377 40.9096L16.9885 96.0295C17.3645 98.3547 19.9286 98.2075 21.6483 97.6635L73.2325 81.3468C76.2903 80.3796 78.5881 77.8236 79.2379 74.6666L85.2094 45.6537C85.8001 42.7843 83.2535 40.256 80.4084 40.8872L72.3799 42.6685L71.5742 36.389C71.3353 34.5267 69.5747 33.26 67.7452 33.634L66.7793 33.8315C66.7307 33.7617 66.6815 33.6918 66.6317 33.6217C66.3701 33.2533 66.0958 32.9049 65.8098 32.5768C65.578 32.3109 65.1758 32.2843 64.9114 32.5174C64.647 32.7505 64.6205 33.155 64.8523 33.421C65.0435 33.6404 65.2296 33.8705 65.41 34.1114ZM21.9114 58.671C22.1584 56.2423 23.9262 54.2467 26.2966 53.7208L44.6646 49.6457C44.0722 49.1383 43.5258 48.5788 43.0363 47.9663C42.8132 47.6871 42.8579 47.2794 43.1362 47.0557C43.4145 46.8319 43.8209 46.8768 44.044 47.1559C44.5407 47.7774 45.1062 48.3415 45.7287 48.8486C45.8872 48.9777 45.9687 49.1666 45.9673 49.3566L69.1697 44.209C69.2293 43.7253 69.2447 43.2177 69.211 42.6856C69.1884 42.3286 69.4587 42.0208 69.8146 41.9981C70.1705 41.9754 70.4774 42.2465 70.5 42.6035C70.5284 43.0525 70.5265 43.4897 70.4957 43.9148L80.5812 41.6772C82.8573 41.1722 84.8945 43.1948 84.422 45.4904L78.4505 74.5033C77.8597 77.3732 75.7709 79.6969 72.9911 80.5762L21.4068 96.8929C19.7537 97.4158 17.9105 97.1894 18.3124 94.7642L21.9114 58.671ZM67.5791 36.1585C67.879 35.9649 67.9657 35.5641 67.7727 35.2632C67.5402 34.9007 67.2918 34.5336 67.0272 34.162C66.8199 33.8708 66.4166 33.8034 66.1263 34.0113C65.8361 34.2193 65.7689 34.6239 65.9762 34.915C66.2292 35.2703 66.4658 35.6201 66.6866 35.9642C66.8795 36.2651 67.2791 36.3521 67.5791 36.1585ZM70.0109 39.9578C70.1135 40.3004 69.9198 40.6616 69.5782 40.7645C69.2366 40.8675 68.8765 40.6731 68.7739 40.3305C68.5613 39.6202 68.2696 38.8745 67.8902 38.0939C67.734 37.7723 67.8671 37.3845 68.1877 37.2277C68.5083 37.0709 68.8949 37.2046 69.0512 37.5261C69.4582 38.3636 69.7763 39.1744 70.0109 39.9578ZM42.6027 38.6995C42.3048 38.5028 41.9043 38.5856 41.7082 38.8844L41.6912 38.9104C41.5867 38.7338 41.4004 38.6099 41.1808 38.5944C40.825 38.5694 40.5163 38.8384 40.4913 39.1952C40.4594 39.6519 40.4476 40.0982 40.4551 40.534C40.4612 40.8917 40.7553 41.1767 41.1119 41.1705C41.2622 41.1679 41.3997 41.114 41.5079 41.0257C41.7386 41.0364 41.9676 40.9223 42.0937 40.7092C42.3193 40.3279 42.5506 39.9571 42.787 39.5968C42.9831 39.298 42.9006 38.8962 42.6027 38.6995ZM42.7845 45.1438C42.9377 45.4669 42.8009 45.8534 42.4788 46.0071C42.1568 46.1608 41.7715 46.0235 41.6182 45.7005C41.2523 44.929 40.9647 44.1005 40.7668 43.2152C40.4294 43.93 40.1105 44.6742 39.8124 45.4476C39.6837 45.7813 39.3098 45.9472 38.9771 45.8181C38.6445 45.6891 38.4791 45.314 38.6077 44.9803C38.9441 44.1077 39.3065 43.2695 39.6921 42.4663C39.8468 42.1439 40.2328 42.0084 40.5541 42.1637C40.7366 42.2518 40.859 42.4148 40.9024 42.5982C40.9899 42.4985 41.1086 42.4249 41.2478 42.3942C41.5962 42.3173 41.9407 42.5382 42.0173 42.8877C42.1946 43.696 42.4542 44.4475 42.7845 45.1438ZM38.5251 47.1365C38.1839 47.0323 37.8231 47.2253 37.7192 47.5676C37.461 48.4185 37.2262 49.2975 37.0168 50.2043C36.9363 50.5529 37.1527 50.9009 37.5002 50.9816C37.8476 51.0624 38.1946 50.8453 38.275 50.4967C38.478 49.618 38.7053 48.7673 38.9548 47.9448C39.0587 47.6026 38.8663 47.2406 38.5251 47.1365Z" fill="black"/><path d="M63.9973 31.6693C64.2044 31.3835 64.1421 30.983 63.8579 30.7747C63.1275 30.239 62.3514 29.8036 61.5404 29.4678C61.2152 29.3331 60.8432 29.4891 60.7093 29.8161C60.5754 30.1431 60.7305 30.5173 61.0556 30.6519C61.7723 30.9487 62.4593 31.3339 63.1078 31.8094C63.3919 32.0178 63.7901 31.955 63.9973 31.6693Z" fill="black"/><path d="M60.2612 21.6007C60.6124 21.6168 60.8842 21.9162 60.8683 22.2694C60.8523 22.6227 60.5547 22.8961 60.2034 22.88C59.3287 22.8401 58.4651 22.8182 57.6152 22.8308C57.2636 22.836 56.9744 22.5536 56.9692 22.2C56.964 21.8464 57.2448 21.5555 57.5964 21.5503C58.4798 21.5372 59.3705 21.56 60.2612 21.6007Z" fill="black"/><path d="M59.5128 29.4835C59.5663 29.134 59.3279 28.807 58.9804 28.7532C58.1158 28.6194 57.2303 28.5836 56.335 28.6435C55.9841 28.6669 55.7186 28.972 55.7419 29.3249C55.7653 29.6777 56.0686 29.9447 56.4194 29.9213C57.2257 29.8674 58.0178 29.8999 58.7867 30.019C59.1343 30.0728 59.4593 29.833 59.5128 29.4835Z" fill="black"/><path d="M54.9081 21.7237C55.2571 21.6808 55.5746 21.9307 55.6172 22.2817C55.6598 22.6327 55.4114 22.952 55.0624 22.9949C54.2133 23.0992 53.387 23.2587 52.5873 23.4908C52.2495 23.5889 51.8966 23.3929 51.7991 23.0532C51.7016 22.7134 51.8964 22.3585 52.2342 22.2604C53.109 22.0065 54.0029 21.8349 54.9081 21.7237Z" fill="black"/><path d="M54.5158 29.5332C54.4256 29.1913 54.0771 28.9877 53.7372 29.0783C52.915 29.2976 52.093 29.5938 51.2788 29.9653C50.9586 30.1114 50.8168 30.4909 50.962 30.8129C51.1073 31.135 51.4846 31.2776 51.8048 31.1315C52.5574 30.7882 53.3127 30.5164 54.0635 30.3162C54.4034 30.2255 54.6059 29.875 54.5158 29.5332Z" fill="black"/><path d="M49.6777 23.2899C49.9886 23.1247 50.3738 23.2442 50.538 23.5569C50.7023 23.8696 50.5834 24.257 50.2725 24.4222C49.5627 24.7994 48.8772 25.2605 48.2201 25.8226C47.9523 26.0517 47.5505 26.0191 47.3227 25.7497C47.0949 25.4803 47.1273 25.0762 47.3952 24.8471C48.1244 24.2233 48.8872 23.7099 49.6777 23.2899Z" fill="black"/><path d="M49.8722 31.4143C49.6821 31.1168 49.2882 31.0306 48.9924 31.2218C48.2845 31.6794 47.5882 32.1958 46.9087 32.7699C46.6395 32.9974 46.6046 33.4013 46.8308 33.672C47.057 33.9428 47.4585 33.9779 47.7278 33.7504C48.3671 33.2101 49.0199 32.7263 49.6808 32.2992C49.9766 32.108 50.0623 31.7118 49.8722 31.4143Z" fill="black"/><path d="M45.4971 26.8314C45.716 26.5547 46.1165 26.5089 46.3917 26.729C46.6668 26.9492 46.7124 27.3521 46.4934 27.6288C46.0007 28.2516 45.5277 28.9548 45.0778 29.7486C44.9036 30.0558 44.5149 30.1629 44.2094 29.9877C43.9039 29.8126 43.7975 29.4216 43.9716 29.1143C44.4515 28.2677 44.9607 27.5094 45.4971 26.8314Z" fill="black"/><path d="M45.9268 34.5324C45.6715 34.2892 45.2686 34.3003 45.0268 34.557C44.452 35.1674 43.8945 35.8234 43.3581 36.5243C43.1436 36.8045 43.1956 37.2065 43.4742 37.4222C43.7528 37.638 44.1525 37.5857 44.367 37.3055C44.8777 36.6384 45.407 36.0156 45.9513 35.4376C46.1931 35.1808 46.1821 34.7756 45.9268 34.5324Z" fill="black"/><path d="M42.7862 31.532C42.9242 31.2067 43.2983 31.0556 43.6217 31.1945C43.945 31.3334 44.0953 31.7096 43.9572 32.0348C43.7914 32.4254 43.6299 32.8325 43.473 33.2567C43.3224 33.6636 43.1865 34.0628 43.0646 34.4543C42.9596 34.7918 42.6024 34.9798 42.2669 34.8742C41.9313 34.7685 41.7445 34.4093 41.8495 34.0718C41.9783 33.658 42.1215 33.2374 42.2796 32.8101C42.4433 32.3678 42.6122 31.9419 42.7862 31.532Z" fill="black"/><text x="0" y="115" fill="#000000" font-size="5px" font-weight="bold" font-family="'Helvetica Neue', Helvetica, Arial-Unicode, Arial, Sans-serif">Created by Evgenii</text><text x="0" y="120" fill="#000000" font-size="5px" font-weight="bold" font-family="'Helvetica Neue', Helvetica, Arial-Unicode, Arial, Sans-serif">from the Noun Project</text></svg>