<svg width="35" height="46" viewBox="0 0 35 46" fill="none" xmlns="http://www.w3.org/2000/svg">
<path d="M18.67 1.1275C18.5416 0.934904 18.3676 0.776988 18.1635 0.667769C17.9594 0.558549 17.7315 0.501404 17.5 0.501404C17.2685 0.501404 17.0406 0.558549 16.8365 0.667769C16.6324 0.776988 16.4584 0.934904 16.33 1.1275L7.89252 13.7838C7.75159 13.9955 7.67075 14.2415 7.6586 14.4956C7.64644 14.7497 7.70343 15.0023 7.82349 15.2266C7.94356 15.4508 8.1222 15.6383 8.34039 15.7691C8.55858 15.8998 8.80815 15.9689 9.06251 15.9691H9.33814L3.65126 25.0675C3.51822 25.2804 3.44458 25.525 3.438 25.7759C3.43141 26.0268 3.49211 26.275 3.6138 26.4945C3.73548 26.7141 3.91372 26.8971 4.13001 27.0245C4.34629 27.1519 4.59274 27.2191 4.84376 27.2191H5.38095L0.774077 36.4328C0.666644 36.6472 0.615822 36.8855 0.626441 37.1251C0.637059 37.3647 0.708766 37.5975 0.834746 37.8016C0.960726 38.0056 1.13679 38.1741 1.34622 38.2909C1.55564 38.4077 1.79146 38.4691 2.03126 38.4691H14.6875V45.5003H20.3125V38.4691H32.9688C33.2086 38.4691 33.4444 38.4077 33.6538 38.2909C33.8632 38.1741 34.0393 38.0056 34.1653 37.8016C34.2913 37.5975 34.363 37.3647 34.3736 37.1251C34.3842 36.8855 34.3334 36.6472 34.226 36.4328L29.6219 27.2191H30.1591C30.4101 27.2191 30.6566 27.1519 30.8728 27.0245C31.0891 26.8971 31.2674 26.7141 31.389 26.4945C31.5107 26.275 31.5714 26.0268 31.5648 25.7759C31.5583 25.525 31.4846 25.2804 31.3516 25.0675L25.6619 15.9691H25.9375C26.1919 15.9689 26.4415 15.8998 26.6596 15.7691C26.8778 15.6383 27.0565 15.4508 27.1765 15.2266C27.2966 15.0023 27.3536 14.7497 27.3414 14.4956C27.3293 14.2415 27.2484 13.9955 27.1075 13.7838L18.67 1.1275Z" fill="#E2817A"/>
</svg>
